<svg width="1440" height="134" viewBox="0 0 1440 134" fill="none" xmlns="http://www.w3.org/2000/svg">
<rect width="1440" height="134" fill="#EDF2EC"/>
<path d="M112.527 71.9466L120.921 54.6641C120.921 54.6641 113.576 58.0091 112.002 61.9116C110.428 65.8141 110.927 69.4038 112.002 71.9466" stroke="#499A18" stroke-linecap="round" stroke-linejoin="round"/>
<path d="M111.996 71.9925C111.996 71.9925 137.71 42.3991 129.316 55.2216C120.921 68.0441 130.171 57.6314 125.497 65.0678C120.824 72.5041 111.996 71.9925 111.996 71.9925Z" stroke="#499A18" stroke-linejoin="round"/>
<path d="M136.926 60.8414C138.281 60.8414 139.284 61.0654 139.934 61.5134C140.596 61.9507 140.926 62.7294 140.926 63.8494C140.926 64.9694 140.601 65.86 139.95 66.5214C139.3 67.172 138.249 67.4974 136.798 67.4974H135.454L135.406 70.9694L136.654 71.0814C136.654 71.38 136.564 71.7 136.382 72.0414H132.782L132.734 71.4974C133.182 71.3267 133.641 71.1987 134.11 71.1134C134.046 66.9534 133.993 63.86 133.95 61.8334C133.662 61.78 133.193 61.652 132.542 61.4494L132.622 60.8414H136.926ZM136.638 66.4574C137.556 66.4467 138.254 66.2174 138.734 65.7694C139.214 65.3107 139.454 64.708 139.454 63.9614C139.454 63.2147 139.22 62.6974 138.75 62.4094C138.281 62.1107 137.529 61.9614 136.494 61.9614C136.302 61.9614 135.977 61.9667 135.518 61.9774C135.518 61.988 135.502 63.4867 135.47 66.4734L136.638 66.4574ZM143.986 60.1534C144.316 60.1534 144.551 60.164 144.69 60.1854C144.69 60.5587 144.62 60.9854 144.482 61.4654C144.386 67.7587 144.338 70.9214 144.338 70.9534L145.682 71.0814C145.682 71.38 145.591 71.7 145.41 72.0414H141.73L141.682 71.4814C142.172 71.3107 142.652 71.1827 143.122 71.0974L142.962 61.4174C142.375 61.3854 141.906 61.3214 141.554 61.2254L141.618 60.3934C142.162 60.2334 142.951 60.1534 143.986 60.1534ZM152.976 66.8094L152.896 70.9374C153.355 70.9694 153.814 71.044 154.272 71.1614L154.24 71.7214C154.07 71.8067 153.76 71.9027 153.312 72.0094C152.875 72.1054 152.443 72.1534 152.016 72.1534C151.824 71.7694 151.718 71.4014 151.696 71.0494C150.48 71.8494 149.627 72.2494 149.136 72.2494C148.379 72.2494 147.771 72.0467 147.312 71.6414C146.854 71.236 146.624 70.6707 146.624 69.9454C146.624 68.2707 147.648 67.4067 149.696 67.3534C150.891 67.3214 151.494 67.3054 151.504 67.3054L151.488 66.7614C151.467 66.0254 151.328 65.4974 151.072 65.1774C150.816 64.8467 150.358 64.6814 149.696 64.6814C149.419 64.6814 149.12 64.7454 148.8 64.8734L148.416 66.4734C148.363 66.484 148.272 66.4894 148.144 66.4894L147.488 66.4414C147.318 65.9827 147.227 65.348 147.216 64.5374C147.419 64.4307 147.883 64.2707 148.608 64.0574C149.334 63.8334 149.798 63.7214 150 63.7214C151.088 63.7214 151.856 63.9614 152.304 64.4414C152.752 64.9214 152.976 65.7107 152.976 66.8094ZM149.488 71.1614C149.798 71.1614 150.512 70.8147 151.632 70.1214L151.552 68.1214C150.827 68.1854 150.219 68.244 149.728 68.2974C149.238 68.3507 148.843 68.4947 148.544 68.7294C148.246 68.9534 148.096 69.3107 148.096 69.8014C148.096 70.708 148.56 71.1614 149.488 71.1614ZM160.161 63.7214C161.185 63.7214 161.927 63.9774 162.385 64.4894C162.844 64.9907 163.073 65.7587 163.073 66.7934C163.073 67.092 163.031 68.4787 162.945 70.9534L164.289 71.0814C164.289 71.38 164.199 71.7 164.017 72.0414H160.337L160.289 71.4814C160.78 71.3107 161.26 71.1827 161.729 71.0974C161.665 68.3027 161.607 66.7507 161.553 66.4414C161.511 66.1214 161.436 65.844 161.329 65.6094C161.223 65.3747 161.063 65.2094 160.849 65.1134C160.636 65.0174 160.353 64.9694 160.001 64.9694C159.297 64.9694 158.615 65.14 157.953 65.4814C157.889 67.9134 157.847 69.7374 157.825 70.9534L159.169 71.0814C159.169 71.38 159.079 71.7 158.897 72.0414H155.217L155.169 71.4814C155.66 71.3107 156.14 71.1827 156.609 71.0974C156.545 68.388 156.492 66.3827 156.449 65.0814C155.863 65.0494 155.393 64.9854 155.041 64.8894L155.105 64.0574C155.681 63.8974 156.519 63.8174 157.617 63.8174C157.745 64.0094 157.841 64.2867 157.905 64.6494C158.364 64.404 158.823 64.1907 159.281 64.0094C159.751 63.8174 160.044 63.7214 160.161 63.7214ZM166.213 71.0494L166.085 65.0174H164.853L164.805 64.4574C164.911 64.3827 165.221 64.244 165.733 64.0414L167.045 61.9934C167.258 62.0147 167.423 62.068 167.541 62.1534L167.525 63.9134C168.325 63.9134 168.981 63.9667 169.493 64.0734C169.493 64.3614 169.402 64.676 169.221 65.0174H167.493C167.471 66.2974 167.45 68.2387 167.429 70.8414C168.026 70.8734 168.623 70.98 169.221 71.1614L169.205 71.7214C169.055 71.8174 168.671 71.9294 168.053 72.0574C167.445 72.1854 166.943 72.2494 166.549 72.2494C166.495 72.164 166.426 71.9827 166.341 71.7054C166.255 71.4174 166.213 71.1987 166.213 71.0494ZM171.919 71.0174C172.292 71.1774 172.746 71.2574 173.279 71.2574C173.823 71.2574 174.25 71.156 174.559 70.9534C174.868 70.7507 175.023 70.4734 175.023 70.1214C175.023 69.7694 174.879 69.476 174.591 69.2414C174.303 69.0067 173.951 68.7987 173.535 68.6174C173.119 68.436 172.703 68.244 172.287 68.0414C171.871 67.8387 171.519 67.572 171.231 67.2414C170.943 66.9107 170.799 66.5267 170.799 66.0894C170.799 65.3534 171.044 64.7774 171.535 64.3614C172.026 63.9347 172.703 63.7214 173.567 63.7214C174.442 63.7214 175.263 63.9187 176.031 64.3134C176.042 64.42 176.047 64.708 176.047 65.1774C176.047 65.636 175.999 66.0307 175.903 66.3614C175.647 66.4467 175.343 66.4894 174.991 66.4894L174.463 64.8574C174.228 64.74 173.908 64.6814 173.503 64.6814C173.108 64.6814 172.794 64.788 172.559 65.0014C172.324 65.204 172.207 65.4654 172.207 65.7854C172.207 66.0947 172.351 66.3667 172.639 66.6014C172.938 66.836 173.295 67.0494 173.711 67.2414C174.127 67.4227 174.543 67.62 174.959 67.8334C175.375 68.036 175.727 68.308 176.015 68.6494C176.314 68.98 176.463 69.364 176.463 69.8014C176.463 70.5694 176.164 71.172 175.567 71.6094C174.98 72.036 174.255 72.2494 173.391 72.2494C172.922 72.2494 172.42 72.1747 171.887 72.0254C171.354 71.8654 170.906 71.6627 170.543 71.4174C170.543 70.7027 170.607 70.068 170.735 69.5134C170.98 69.4707 171.311 69.4494 171.727 69.4494L171.919 71.0174Z" fill="black"/>
<path d="M887.192 71.656L887.128 67.88H882.936C882.915 69.48 882.904 70.6747 882.904 71.464L884.008 71.608C884.008 72.0453 883.885 72.5093 883.64 73H879.752L879.608 72.12C880.205 71.8747 880.653 71.72 880.952 71.656C880.952 71.624 880.904 68.8027 880.808 63.192L879.48 62.776L879.608 61.8H883.752C883.923 62.088 884.024 62.5093 884.056 63.064C883.512 63.1493 883.155 63.2027 882.984 63.224C882.963 64.6107 882.952 65.6507 882.952 66.344H887.096L887.048 63.192L885.72 62.776L885.848 61.8H889.992C890.163 62.088 890.264 62.5093 890.296 63.064C889.752 63.1493 889.395 63.2027 889.224 63.224L889.144 71.464L890.248 71.608C890.248 72.0453 890.125 72.5093 889.88 73H885.992L885.848 72.12C886.445 71.8747 886.893 71.72 887.192 71.656ZM895.626 65.96C895.242 65.96 894.805 66.056 894.314 66.248C894.176 66.4613 894.042 66.84 893.914 67.384C893.797 67.9173 893.738 68.456 893.738 69C893.738 70.0027 893.888 70.7173 894.186 71.144C894.485 71.56 894.965 71.768 895.626 71.768C896.298 71.768 896.784 71.56 897.082 71.144C897.381 70.7173 897.53 69.992 897.53 68.968C897.53 67.9333 897.376 67.176 897.066 66.696C896.768 66.2053 896.288 65.96 895.626 65.96ZM895.626 64.68C896.874 64.68 897.877 65.064 898.634 65.832C899.402 66.5893 899.786 67.6507 899.786 69.016C899.786 70.3707 899.408 71.4053 898.65 72.12C897.893 72.8347 896.885 73.192 895.626 73.192C894.368 73.192 893.36 72.8347 892.602 72.12C891.856 71.4053 891.482 70.3707 891.482 69.016C891.482 67.6507 891.861 66.5893 892.618 65.832C893.376 65.064 894.378 64.68 895.626 64.68ZM911.276 68.376C911.254 67.6293 911.164 67.112 911.004 66.824C910.854 66.536 910.502 66.392 909.948 66.392C909.404 66.392 908.897 66.5093 908.428 66.744C908.428 68.1093 908.358 69.6827 908.22 71.464L909.484 71.608C909.484 72.0453 909.361 72.5093 909.116 73H905.132L904.988 72.12C905.542 71.9173 906.028 71.7573 906.444 71.64L906.316 68.312C906.294 67.6187 906.209 67.128 906.06 66.84C905.921 66.5413 905.649 66.392 905.244 66.392C905.03 66.392 904.721 66.4293 904.316 66.504C903.91 66.5787 903.601 66.6587 903.388 66.744C903.388 66.776 903.34 68.3493 903.244 71.464L904.492 71.608C904.492 72.0773 904.369 72.5413 904.124 73H900.14L899.996 72.12C900.625 71.8747 901.105 71.7147 901.436 71.64L901.228 66.472C900.79 66.4293 900.369 66.3493 899.964 66.232L900.044 65.08C900.225 65.0267 900.614 64.9627 901.212 64.888C901.809 64.8133 902.262 64.776 902.572 64.776C902.614 64.808 902.694 64.9093 902.812 65.08C902.929 65.24 903.009 65.368 903.052 65.464C903.414 65.2827 903.852 65.1067 904.364 64.936C904.886 64.7653 905.206 64.68 905.324 64.68C906.454 64.68 907.281 64.9733 907.804 65.56C908.209 65.3467 908.7 65.1493 909.276 64.968C909.852 64.776 910.209 64.68 910.348 64.68C911.361 64.68 912.118 64.92 912.62 65.4C913.121 65.88 913.372 66.68 913.372 67.8C913.372 68.4187 913.324 69.64 913.228 71.464L914.476 71.608C914.476 72.0773 914.353 72.5413 914.108 73H910.14L909.996 72.12C910.497 71.9173 910.956 71.7573 911.372 71.64C911.361 71.3947 911.35 71.048 911.34 70.6C911.318 69.864 911.297 69.1227 911.276 68.376ZM919.111 71.624C919.474 71.624 920.21 71.3733 921.319 70.872C921.554 71.2133 921.73 71.608 921.847 72.056C921.261 72.4187 920.685 72.7013 920.119 72.904C919.565 73.096 919.17 73.192 918.935 73.192C917.645 73.192 916.663 72.8347 915.991 72.12C915.33 71.4053 914.999 70.392 914.999 69.08C914.999 67.7573 915.33 66.696 915.991 65.896C916.653 65.0853 917.634 64.68 918.935 64.68C919.97 64.68 920.759 65.016 921.303 65.688C921.847 66.36 922.119 67.2347 922.119 68.312C922.119 68.536 921.991 68.792 921.735 69.08L917.127 69C917.149 69.8533 917.309 70.504 917.607 70.952C917.906 71.4 918.407 71.624 919.111 71.624ZM918.791 66.008C918.386 66.008 918.007 66.088 917.655 66.248C917.41 66.76 917.255 67.2347 917.191 67.672C918.023 67.64 918.967 67.6187 920.023 67.608C919.97 66.5413 919.559 66.008 918.791 66.008Z" fill="#E06733"/>
<path d="M1086.58 71.928C1088.17 71.928 1088.96 71.2827 1088.96 69.992C1088.96 69.3627 1088.57 68.8293 1087.79 68.392C1087.44 68.1893 1087.05 67.9973 1086.62 67.816C1086.21 67.6347 1085.79 67.4373 1085.36 67.224C1084.93 67.0107 1084.54 66.7813 1084.19 66.536C1083.85 66.2907 1083.57 65.9813 1083.34 65.608C1083.13 65.2347 1083.02 64.8133 1083.02 64.344C1083.02 63.576 1083.33 62.9253 1083.95 62.392C1084.58 61.848 1085.44 61.576 1086.53 61.576C1087.62 61.576 1088.76 61.9067 1089.97 62.568C1089.97 63.176 1089.89 63.9387 1089.74 64.856C1089.51 64.888 1089.2 64.904 1088.82 64.904L1088.34 63.048C1088.21 62.984 1087.95 62.92 1087.57 62.856C1087.19 62.792 1086.86 62.76 1086.58 62.76C1085.96 62.76 1085.48 62.8933 1085.14 63.16C1084.79 63.416 1084.62 63.7787 1084.62 64.248C1084.62 64.7067 1084.82 65.1227 1085.22 65.496C1085.62 65.8587 1086.11 66.1733 1086.67 66.44C1087.25 66.696 1087.82 66.9627 1088.38 67.24C1088.96 67.5173 1089.45 67.88 1089.84 68.328C1090.25 68.7653 1090.45 69.2773 1090.45 69.864C1090.45 70.9307 1090.09 71.7573 1089.38 72.344C1088.66 72.92 1087.73 73.208 1086.58 73.208C1085.95 73.208 1085.26 73.112 1084.53 72.92C1083.8 72.7173 1083.2 72.4613 1082.72 72.152C1082.74 71.4373 1082.82 70.6107 1082.96 69.672C1083.19 69.64 1083.5 69.624 1083.89 69.624L1084.22 71.544C1084.46 71.64 1084.81 71.7307 1085.28 71.816C1085.76 71.8907 1086.19 71.928 1086.58 71.928ZM1095.81 72.104C1096.28 72.104 1097.02 71.88 1098.02 71.432C1098.22 71.7093 1098.33 71.9547 1098.34 72.168C1097.8 72.488 1097.26 72.7387 1096.74 72.92C1096.22 73.1013 1095.84 73.192 1095.62 73.192C1094.38 73.192 1093.44 72.824 1092.79 72.088C1092.14 71.3413 1091.81 70.3013 1091.81 68.968C1091.81 67.6347 1092.13 66.5893 1092.76 65.832C1093.4 65.064 1094.35 64.68 1095.62 64.68C1096.6 64.68 1097.35 65.032 1097.86 65.736C1098.38 66.44 1098.64 67.384 1098.64 68.568C1098.56 68.7173 1098.49 68.8187 1098.44 68.872L1093.28 68.792C1093.29 69.8693 1093.48 70.6907 1093.84 71.256C1094.22 71.8213 1094.87 72.104 1095.81 72.104ZM1097.19 67.88C1097.19 67.176 1097.06 66.632 1096.8 66.248C1096.55 65.8533 1096.12 65.656 1095.52 65.656C1094.93 65.656 1094.39 65.768 1093.92 65.992C1093.6 66.632 1093.4 67.288 1093.32 67.96C1094.16 67.9493 1095.45 67.9227 1097.19 67.88ZM1104.85 66.024C1104.79 65.9707 1104.68 65.944 1104.5 65.944C1104.31 65.944 1104.04 66.008 1103.68 66.136C1103.33 66.264 1103.01 66.4133 1102.72 66.584C1102.66 68.952 1102.61 70.728 1102.59 71.912L1103.94 72.04C1103.94 72.3387 1103.84 72.6587 1103.66 73H1099.98L1099.94 72.44C1100.43 72.2693 1100.91 72.1413 1101.38 72.056C1101.31 69.3467 1101.26 67.3413 1101.22 66.04C1100.63 66.008 1100.16 65.944 1099.81 65.848L1099.87 65.016C1100.44 64.856 1101.27 64.776 1102.38 64.776C1102.55 65.0427 1102.66 65.384 1102.7 65.8C1103.93 65.0533 1104.66 64.68 1104.9 64.68C1105.13 64.68 1105.4 64.728 1105.71 64.824C1106.02 64.9093 1106.25 65.0053 1106.4 65.112C1106.4 66.1787 1106.3 67.048 1106.1 67.72C1105.95 67.7627 1105.77 67.784 1105.57 67.784C1105.38 67.784 1105.24 67.7787 1105.17 67.768L1104.85 66.024ZM1114.91 65.944L1111.79 73H1110.66L1107.73 65.96L1106.39 65.832C1106.39 65.5333 1106.48 65.2133 1106.66 64.872H1110.53L1110.58 65.432C1110.24 65.5813 1109.86 65.6987 1109.44 65.784L1110.88 70.152L1111.25 71.56H1111.44L1111.84 70.136L1113.33 65.784L1111.99 65.432L1112.03 64.872H1115.95C1116.14 65.2133 1116.23 65.5333 1116.23 65.832C1115.79 65.8853 1115.35 65.9227 1114.91 65.944ZM1119.44 63.352C1119.16 63.416 1118.89 63.448 1118.62 63.448C1118.37 63.448 1118.11 63.432 1117.86 63.4C1117.79 63.1013 1117.76 62.8027 1117.76 62.504C1117.76 62.1947 1117.77 61.9653 1117.79 61.816C1118.03 61.7627 1118.27 61.736 1118.53 61.736C1118.8 61.736 1119.08 61.7467 1119.38 61.768C1119.44 62.0453 1119.47 62.3173 1119.47 62.584C1119.47 62.84 1119.46 63.096 1119.44 63.352ZM1116.53 65.032C1117.44 64.872 1118.14 64.792 1118.64 64.792C1119.14 64.792 1119.46 64.8027 1119.6 64.824C1119.6 65.08 1119.57 65.3627 1119.5 65.672C1119.44 65.9813 1119.4 66.1307 1119.39 66.12L1119.25 71.912L1120.59 72.04C1120.59 72.3387 1120.5 72.6587 1120.32 73H1116.64L1116.59 72.44C1117.08 72.2693 1117.56 72.1413 1118.03 72.056C1117.97 69.3893 1117.92 67.3893 1117.87 66.056C1117.25 66.056 1116.78 65.992 1116.46 65.864L1116.53 65.032ZM1125.29 73.192C1124.01 73.192 1123.06 72.8347 1122.43 72.12C1121.8 71.3947 1121.48 70.3653 1121.48 69.032C1121.48 66.1307 1122.77 64.68 1125.35 64.68C1125.77 64.68 1126.2 64.744 1126.65 64.872C1127.1 64.9893 1127.45 65.1227 1127.71 65.272C1127.67 66.264 1127.57 66.968 1127.4 67.384C1127.21 67.4373 1127.06 67.464 1126.94 67.464H1126.67C1126.61 67.464 1126.55 67.4587 1126.47 67.448L1126.07 65.688C1125.72 65.656 1125.52 65.64 1125.47 65.64C1124.7 65.64 1124.08 65.8747 1123.63 66.344C1123.18 66.8133 1122.95 67.6027 1122.95 68.712C1122.95 69.8213 1123.12 70.664 1123.47 71.24C1123.82 71.816 1124.49 72.104 1125.48 72.104C1125.95 72.104 1126.69 71.88 1127.69 71.432C1127.89 71.7093 1128 71.9547 1128.01 72.168C1127.47 72.488 1126.93 72.7387 1126.41 72.92C1125.89 73.1013 1125.51 73.192 1125.29 73.192ZM1133.09 72.104C1133.56 72.104 1134.3 71.88 1135.3 71.432C1135.5 71.7093 1135.61 71.9547 1135.62 72.168C1135.08 72.488 1134.54 72.7387 1134.02 72.92C1133.5 73.1013 1133.13 73.192 1132.9 73.192C1131.66 73.192 1130.72 72.824 1130.07 72.088C1129.42 71.3413 1129.09 70.3013 1129.09 68.968C1129.09 67.6347 1129.41 66.5893 1130.04 65.832C1130.68 65.064 1131.63 64.68 1132.9 64.68C1133.88 64.68 1134.63 65.032 1135.14 65.736C1135.66 66.44 1135.93 67.384 1135.93 68.568C1135.84 68.7173 1135.77 68.8187 1135.72 68.872L1130.57 68.792C1130.58 69.8693 1130.76 70.6907 1131.13 71.256C1131.5 71.8213 1132.15 72.104 1133.09 72.104ZM1134.47 67.88C1134.47 67.176 1134.34 66.632 1134.09 66.248C1133.83 65.8533 1133.4 65.656 1132.81 65.656C1132.21 65.656 1131.67 65.768 1131.21 65.992C1130.89 66.632 1130.68 67.288 1130.6 67.96C1131.44 67.9493 1132.73 67.9227 1134.47 67.88Z" fill="#010201"/>
<path d="M1272.02 73.208C1268.89 73.208 1267.32 71.24 1267.32 67.304C1267.32 65.4373 1267.7 64.0187 1268.46 63.048C1269.22 62.0773 1270.45 61.592 1272.12 61.592C1273.46 61.592 1274.66 61.9653 1275.7 62.712C1275.7 63.3093 1275.63 64.0667 1275.48 64.984C1275.33 65.016 1275.02 65.032 1274.55 65.032L1274.07 63.048C1273.31 62.9093 1272.71 62.84 1272.25 62.84C1271.41 62.84 1270.66 62.9573 1270.02 63.192L1269.72 63.304C1269.66 63.4107 1269.58 63.5707 1269.48 63.784C1269.38 63.9867 1269.26 64.4187 1269.1 65.08C1268.95 65.7413 1268.87 66.4187 1268.87 67.112C1268.87 68.616 1269.12 69.8107 1269.61 70.696C1270.11 71.5813 1270.9 72.024 1271.99 72.024C1272.77 72.024 1273.36 71.944 1273.75 71.784C1273.86 71.7307 1274.01 71.6507 1274.22 71.544L1274.55 69.624L1275.48 69.672C1275.64 70.7707 1275.72 71.6613 1275.72 72.344C1275.5 72.5147 1275.01 72.7013 1274.26 72.904C1273.53 73.1067 1272.78 73.208 1272.02 73.208ZM1280.73 72.232C1281.62 72.232 1282.22 71.9547 1282.53 71.4C1282.85 70.8347 1283.01 70.0347 1283.01 69C1283.01 67.3573 1282.65 66.328 1281.93 65.912C1281.63 65.7413 1281.21 65.656 1280.66 65.656C1280.13 65.656 1279.62 65.768 1279.14 65.992C1278.71 66.8133 1278.5 67.768 1278.5 68.856C1278.5 69.9013 1278.64 70.7067 1278.92 71.272C1279.24 71.912 1279.84 72.232 1280.73 72.232ZM1277.03 69C1277.03 67.6453 1277.34 66.5893 1277.96 65.832C1278.58 65.064 1279.53 64.68 1280.82 64.68C1282.11 64.68 1283.05 65.032 1283.62 65.736C1284.2 66.4293 1284.49 67.4587 1284.49 68.824C1284.49 70.1893 1284.18 71.2613 1283.56 72.04C1282.95 72.8187 1282.02 73.208 1280.77 73.208C1279.53 73.208 1278.59 72.8453 1277.96 72.12C1277.34 71.3947 1277.03 70.3547 1277.03 69ZM1290.63 64.68C1291.65 64.68 1292.4 64.936 1292.85 65.448C1293.31 65.9493 1293.54 66.7173 1293.54 67.752C1293.54 68.0507 1293.5 69.4373 1293.41 71.912L1294.76 72.04C1294.76 72.3387 1294.67 72.6587 1294.49 73H1290.81L1290.76 72.44C1291.25 72.2693 1291.73 72.1413 1292.2 72.056C1292.13 69.2613 1292.08 67.7093 1292.02 67.4C1291.98 67.08 1291.91 66.8027 1291.8 66.568C1291.69 66.3333 1291.53 66.168 1291.32 66.072C1291.11 65.976 1290.82 65.928 1290.47 65.928C1289.77 65.928 1289.08 66.0987 1288.42 66.44C1288.36 68.872 1288.32 70.696 1288.29 71.912L1289.64 72.04C1289.64 72.3387 1289.55 72.6587 1289.37 73H1285.69L1285.64 72.44C1286.13 72.2693 1286.61 72.1413 1287.08 72.056C1287.01 69.3467 1286.96 67.3413 1286.92 66.04C1286.33 66.008 1285.86 65.944 1285.51 65.848L1285.57 65.016C1286.15 64.856 1286.99 64.776 1288.09 64.776C1288.21 64.968 1288.31 65.2453 1288.37 65.608C1288.83 65.3627 1289.29 65.1493 1289.75 64.968C1290.22 64.776 1290.51 64.68 1290.63 64.68ZM1296.68 72.008L1296.55 65.976H1295.32L1295.27 65.416C1295.38 65.3413 1295.69 65.2027 1296.2 65L1297.51 62.952C1297.73 62.9733 1297.89 63.0267 1298.01 63.112L1297.99 64.872C1298.79 64.872 1299.45 64.9253 1299.96 65.032C1299.96 65.32 1299.87 65.6347 1299.69 65.976H1297.96C1297.94 67.256 1297.92 69.1973 1297.9 71.8C1298.5 71.832 1299.09 71.9387 1299.69 72.12L1299.67 72.68C1299.52 72.776 1299.14 72.888 1298.52 73.016C1297.91 73.144 1297.41 73.208 1297.02 73.208C1296.96 73.1227 1296.9 72.9413 1296.81 72.664C1296.72 72.376 1296.68 72.1573 1296.68 72.008ZM1307.49 67.768L1307.41 71.896C1307.87 71.928 1308.33 72.0027 1308.79 72.12L1308.76 72.68C1308.59 72.7653 1308.28 72.8613 1307.83 72.968C1307.39 73.064 1306.96 73.112 1306.53 73.112C1306.34 72.728 1306.23 72.36 1306.21 72.008C1305 72.808 1304.14 73.208 1303.65 73.208C1302.9 73.208 1302.29 73.0053 1301.83 72.6C1301.37 72.1947 1301.14 71.6293 1301.14 70.904C1301.14 69.2293 1302.16 68.3653 1304.21 68.312C1305.41 68.28 1306.01 68.264 1306.02 68.264L1306 67.72C1305.98 66.984 1305.84 66.456 1305.59 66.136C1305.33 65.8053 1304.87 65.64 1304.21 65.64C1303.94 65.64 1303.64 65.704 1303.32 65.832L1302.93 67.432C1302.88 67.4427 1302.79 67.448 1302.66 67.448L1302 67.4C1301.83 66.9413 1301.74 66.3067 1301.73 65.496C1301.94 65.3893 1302.4 65.2293 1303.12 65.016C1303.85 64.792 1304.31 64.68 1304.52 64.68C1305.6 64.68 1306.37 64.92 1306.82 65.4C1307.27 65.88 1307.49 66.6693 1307.49 67.768ZM1304 72.12C1304.31 72.12 1305.03 71.7733 1306.15 71.08L1306.07 69.08C1305.34 69.144 1304.74 69.2027 1304.24 69.256C1303.75 69.3093 1303.36 69.4533 1303.06 69.688C1302.76 69.912 1302.61 70.2693 1302.61 70.76C1302.61 71.6667 1303.08 72.12 1304 72.12ZM1313.49 73.192C1312.21 73.192 1311.26 72.8347 1310.63 72.12C1310 71.3947 1309.69 70.3653 1309.69 69.032C1309.69 66.1307 1310.98 64.68 1313.56 64.68C1313.97 64.68 1314.41 64.744 1314.85 64.872C1315.3 64.9893 1315.65 65.1227 1315.91 65.272C1315.88 66.264 1315.78 66.968 1315.61 67.384C1315.41 67.4373 1315.26 67.464 1315.14 67.464H1314.87C1314.82 67.464 1314.75 67.4587 1314.68 67.448L1314.28 65.688C1313.93 65.656 1313.72 65.64 1313.67 65.64C1312.9 65.64 1312.29 65.8747 1311.83 66.344C1311.38 66.8133 1311.16 67.6027 1311.16 68.712C1311.16 69.8213 1311.33 70.664 1311.67 71.24C1312.02 71.816 1312.69 72.104 1313.69 72.104C1314.15 72.104 1314.89 71.88 1315.89 71.432C1316.1 71.7093 1316.2 71.9547 1316.21 72.168C1315.67 72.488 1315.14 72.7387 1314.61 72.92C1314.09 73.1013 1313.72 73.192 1313.49 73.192ZM1318.42 72.008L1318.29 65.976H1317.06L1317.01 65.416C1317.11 65.3413 1317.42 65.2027 1317.94 65L1319.25 62.952C1319.46 62.9733 1319.63 63.0267 1319.74 63.112L1319.73 64.872C1320.53 64.872 1321.18 64.9253 1321.7 65.032C1321.7 65.32 1321.61 65.6347 1321.42 65.976H1319.7C1319.67 67.256 1319.65 69.1973 1319.63 71.8C1320.23 71.832 1320.83 71.9387 1321.42 72.12L1321.41 72.68C1321.26 72.776 1320.87 72.888 1320.26 73.016C1319.65 73.144 1319.15 73.208 1318.75 73.208C1318.7 73.1227 1318.63 72.9413 1318.54 72.664C1318.46 72.376 1318.42 72.1573 1318.42 72.008ZM1324.12 71.976C1324.5 72.136 1324.95 72.216 1325.48 72.216C1326.03 72.216 1326.45 72.1147 1326.76 71.912C1327.07 71.7093 1327.23 71.432 1327.23 71.08C1327.23 70.728 1327.08 70.4347 1326.79 70.2C1326.51 69.9653 1326.15 69.7573 1325.74 69.576C1325.32 69.3947 1324.91 69.2027 1324.49 69C1324.07 68.7973 1323.72 68.5307 1323.43 68.2C1323.15 67.8693 1323 67.4853 1323 67.048C1323 66.312 1323.25 65.736 1323.74 65.32C1324.23 64.8933 1324.91 64.68 1325.77 64.68C1326.65 64.68 1327.47 64.8773 1328.23 65.272C1328.25 65.3787 1328.25 65.6667 1328.25 66.136C1328.25 66.5947 1328.2 66.9893 1328.11 67.32C1327.85 67.4053 1327.55 67.448 1327.19 67.448L1326.67 65.816C1326.43 65.6987 1326.11 65.64 1325.71 65.64C1325.31 65.64 1325 65.7467 1324.76 65.96C1324.53 66.1627 1324.41 66.424 1324.41 66.744C1324.41 67.0533 1324.55 67.3253 1324.84 67.56C1325.14 67.7947 1325.5 68.008 1325.91 68.2C1326.33 68.3813 1326.75 68.5787 1327.16 68.792C1327.58 68.9947 1327.93 69.2667 1328.22 69.608C1328.52 69.9387 1328.67 70.3227 1328.67 70.76C1328.67 71.528 1328.37 72.1307 1327.77 72.568C1327.18 72.9947 1326.46 73.208 1325.59 73.208C1325.13 73.208 1324.62 73.1333 1324.09 72.984C1323.56 72.824 1323.11 72.6213 1322.75 72.376C1322.75 71.6613 1322.81 71.0267 1322.94 70.472C1323.18 70.4293 1323.51 70.408 1323.93 70.408L1324.12 71.976Z" fill="#010201"/>
<path d="M971.576 62.136C971.768 62.072 972.291 62.0027 973.144 61.928C973.997 61.8427 974.771 61.8 975.464 61.8C976.168 61.8 976.712 61.832 977.096 61.896C977.107 61.9387 977.112 61.992 977.112 62.056C977.112 62.1093 977.08 62.2427 977.016 62.456C976.963 62.6693 976.92 62.808 976.888 62.872C976.803 62.9573 976.563 63.0213 976.168 63.064L979.224 71.912L980.744 72.04C980.744 72.3387 980.653 72.6587 980.472 73H976.792L976.744 72.44C976.989 72.312 977.347 72.2 977.816 72.104L977 69.816H972.536L971.784 71.912L973.08 72.04C973.08 72.3387 972.989 72.6587 972.808 73H969.128L969.08 72.44C969.496 72.2907 969.939 72.1733 970.408 72.088L973.512 63.016C972.563 62.9093 971.896 62.7813 971.512 62.632L971.576 62.136ZM975.736 66.248L974.888 63.112C974.824 63.1013 974.733 63.096 974.616 63.096L973.752 66.36L972.824 68.792H976.712L975.736 66.248ZM986.108 65.88C985.415 65.88 984.652 66.104 983.82 66.552C983.799 67.5333 983.777 68.4453 983.756 69.288C983.745 70.12 983.735 70.7013 983.724 71.032C983.991 71.2987 984.348 71.544 984.796 71.768C985.244 71.992 985.633 72.104 985.964 72.104C987.223 72.104 987.852 71.0693 987.852 69C987.852 68.2107 987.761 67.592 987.58 67.144C987.399 66.6853 987.191 66.36 986.956 66.168C986.721 65.976 986.439 65.88 986.108 65.88ZM983.372 61.112C983.703 61.112 983.937 61.1227 984.076 61.144C984.076 61.464 984.007 61.8907 983.868 62.424C983.868 62.6693 983.863 63.016 983.852 63.464C983.831 64.3387 983.82 65.08 983.82 65.688C985.143 65.016 986.001 64.68 986.396 64.68C987.388 64.68 988.124 65.0693 988.604 65.848C989.084 66.616 989.324 67.6187 989.324 68.856C989.324 70.0827 989.052 71.112 988.508 71.944C987.975 72.776 987.196 73.192 986.172 73.192C985.756 73.192 985.297 73.0747 984.796 72.84C984.305 72.6053 983.884 72.328 983.532 72.008C983.489 72.4027 983.404 72.7653 983.276 73.096C983.233 73.1067 983.153 73.112 983.036 73.112C982.919 73.112 982.748 73.096 982.524 73.064L982.348 62.392C981.815 62.36 981.345 62.2907 980.94 62.184L981.004 61.352C981.548 61.192 982.337 61.112 983.372 61.112ZM994.178 72.232C995.074 72.232 995.677 71.9547 995.986 71.4C996.306 70.8347 996.466 70.0347 996.466 69C996.466 67.3573 996.104 66.328 995.378 65.912C995.08 65.7413 994.658 65.656 994.114 65.656C993.581 65.656 993.074 65.768 992.594 65.992C992.168 66.8133 991.954 67.768 991.954 68.856C991.954 69.9013 992.093 70.7067 992.37 71.272C992.69 71.912 993.293 72.232 994.178 72.232ZM990.482 69C990.482 67.6453 990.792 66.5893 991.41 65.832C992.029 65.064 992.984 64.68 994.274 64.68C995.565 64.68 996.498 65.032 997.074 65.736C997.65 66.4293 997.938 67.4587 997.938 68.824C997.938 70.1893 997.629 71.2613 997.01 72.04C996.402 72.8187 995.474 73.208 994.226 73.208C992.978 73.208 992.04 72.8453 991.41 72.12C990.792 71.3947 990.482 70.3547 990.482 69ZM1003.22 71.944C1003.53 71.944 1003.88 71.88 1004.26 71.752C1004.64 71.6133 1004.96 71.448 1005.2 71.256C1005.16 68.984 1005.12 67.2613 1005.09 66.088C1004.43 66.088 1003.94 66.024 1003.62 65.896L1003.68 65.064C1004.59 64.904 1005.3 64.824 1005.81 64.824C1006.33 64.824 1006.66 64.8347 1006.8 64.856C1006.8 65.048 1006.77 65.304 1006.71 65.624C1006.65 65.944 1006.62 66.12 1006.6 66.152L1006.4 71.864C1006.97 71.896 1007.43 71.96 1007.78 72.056L1007.75 72.872C1007.28 73.0213 1006.82 73.096 1006.39 73.096C1005.95 73.096 1005.68 73.0907 1005.59 73.08C1005.38 72.6747 1005.27 72.3013 1005.24 71.96C1004.71 72.3547 1004.23 72.6587 1003.78 72.872C1003.34 73.0853 1003.05 73.192 1002.92 73.192C1001.98 73.192 1001.29 72.9413 1000.87 72.44C1000.45 71.928 1000.24 71.1813 1000.24 70.2C1000.24 70.1893 1000.29 68.824 1000.39 66.104C999.769 66.104 999.198 66.0347 998.676 65.896L998.74 65.064C999.646 64.904 1000.35 64.824 1000.85 64.824C1001.35 64.824 1001.67 64.8347 1001.81 64.856C1001.81 65.112 1001.78 65.3947 1001.72 65.704C1001.65 66.0133 1001.61 66.1627 1001.6 66.152L1001.62 69.608C1001.62 70.4187 1001.72 71.0107 1001.92 71.384C1002.13 71.7573 1002.56 71.944 1003.22 71.944ZM1009.79 72.008L1009.66 65.976H1008.43L1008.38 65.416C1008.49 65.3413 1008.8 65.2027 1009.31 65L1010.62 62.952C1010.84 62.9733 1011 63.0267 1011.12 63.112L1011.1 64.872C1011.9 64.872 1012.56 64.9253 1013.07 65.032C1013.07 65.32 1012.98 65.6347 1012.8 65.976H1011.07C1011.05 67.256 1011.03 69.1973 1011.01 71.8C1011.6 71.832 1012.2 71.9387 1012.8 72.12L1012.78 72.68C1012.63 72.776 1012.25 72.888 1011.63 73.016C1011.02 73.144 1010.52 73.208 1010.13 73.208C1010.07 73.1227 1010 72.9413 1009.92 72.664C1009.83 72.376 1009.79 72.1573 1009.79 72.008ZM1022.45 71.944C1022.76 71.944 1023.11 71.88 1023.49 71.752C1023.88 71.6133 1024.19 71.448 1024.44 71.256C1024.4 68.984 1024.36 67.2613 1024.33 66.088C1023.66 66.088 1023.17 66.024 1022.85 65.896L1022.92 65.064C1023.82 64.904 1024.53 64.824 1025.05 64.824C1025.57 64.824 1025.9 64.8347 1026.04 64.856C1026.04 65.048 1026.01 65.304 1025.94 65.624C1025.89 65.944 1025.85 66.12 1025.83 66.152L1025.64 71.864C1026.2 71.896 1026.66 71.96 1027.01 72.056L1026.98 72.872C1026.51 73.0213 1026.06 73.096 1025.62 73.096C1025.18 73.096 1024.92 73.0907 1024.82 73.08C1024.62 72.6747 1024.5 72.3013 1024.47 71.96C1023.95 72.3547 1023.46 72.6587 1023.01 72.872C1022.58 73.0853 1022.29 73.192 1022.15 73.192C1021.21 73.192 1020.53 72.9413 1020.1 72.44C1019.69 71.928 1019.48 71.1813 1019.48 70.2C1019.48 70.1893 1019.53 68.824 1019.62 66.104C1019 66.104 1018.43 66.0347 1017.91 65.896L1017.97 65.064C1018.88 64.904 1019.58 64.824 1020.09 64.824C1020.59 64.824 1020.91 64.8347 1021.05 64.856C1021.05 65.112 1021.01 65.3947 1020.95 65.704C1020.89 66.0133 1020.85 66.1627 1020.84 66.152L1020.85 69.608C1020.85 70.4187 1020.96 71.0107 1021.16 71.384C1021.36 71.7573 1021.79 71.944 1022.45 71.944ZM1029.17 71.976C1029.54 72.136 1030 72.216 1030.53 72.216C1031.07 72.216 1031.5 72.1147 1031.81 71.912C1032.12 71.7093 1032.27 71.432 1032.27 71.08C1032.27 70.728 1032.13 70.4347 1031.84 70.2C1031.55 69.9653 1031.2 69.7573 1030.79 69.576C1030.37 69.3947 1029.95 69.2027 1029.54 69C1029.12 68.7973 1028.77 68.5307 1028.48 68.2C1028.19 67.8693 1028.05 67.4853 1028.05 67.048C1028.05 66.312 1028.29 65.736 1028.79 65.32C1029.28 64.8933 1029.95 64.68 1030.82 64.68C1031.69 64.68 1032.51 64.8773 1033.28 65.272C1033.29 65.3787 1033.3 65.6667 1033.3 66.136C1033.3 66.5947 1033.25 66.9893 1033.15 67.32C1032.9 67.4053 1032.59 67.448 1032.24 67.448L1031.71 65.816C1031.48 65.6987 1031.16 65.64 1030.75 65.64C1030.36 65.64 1030.04 65.7467 1029.81 65.96C1029.57 66.1627 1029.46 66.424 1029.46 66.744C1029.46 67.0533 1029.6 67.3253 1029.89 67.56C1030.19 67.7947 1030.55 68.008 1030.96 68.2C1031.38 68.3813 1031.79 68.5787 1032.21 68.792C1032.63 68.9947 1032.98 69.2667 1033.27 69.608C1033.56 69.9387 1033.71 70.3227 1033.71 70.76C1033.71 71.528 1033.41 72.1307 1032.82 72.568C1032.23 72.9947 1031.51 73.208 1030.64 73.208C1030.17 73.208 1029.67 73.1333 1029.14 72.984C1028.6 72.824 1028.16 72.6213 1027.79 72.376C1027.79 71.6613 1027.86 71.0267 1027.99 70.472C1028.23 70.4293 1028.56 70.408 1028.98 70.408L1029.17 71.976Z" fill="#010201"/>
<path d="M1187.88 61.8C1189.23 61.8 1190.24 62.024 1190.89 62.472C1191.55 62.9093 1191.88 63.688 1191.88 64.808C1191.88 65.928 1191.55 66.8187 1190.9 67.48C1190.25 68.1307 1189.2 68.456 1187.75 68.456H1186.41L1186.36 71.928L1187.61 72.04C1187.61 72.3387 1187.52 72.6587 1187.34 73H1183.74L1183.69 72.456C1184.14 72.2853 1184.59 72.1573 1185.06 72.072C1185 67.912 1184.95 64.8187 1184.9 62.792C1184.62 62.7387 1184.15 62.6107 1183.5 62.408L1183.58 61.8H1187.88ZM1187.59 67.416C1188.51 67.4053 1189.21 67.176 1189.69 66.728C1190.17 66.2693 1190.41 65.6667 1190.41 64.92C1190.41 64.1733 1190.17 63.656 1189.7 63.368C1189.23 63.0693 1188.48 62.92 1187.45 62.92C1187.26 62.92 1186.93 62.9253 1186.47 62.936C1186.47 62.9467 1186.46 64.4453 1186.42 67.432L1187.59 67.416ZM1197.69 66.024C1197.64 65.9707 1197.52 65.944 1197.34 65.944C1197.16 65.944 1196.89 66.008 1196.52 66.136C1196.17 66.264 1195.85 66.4133 1195.56 66.584C1195.5 68.952 1195.46 70.728 1195.44 71.912L1196.78 72.04C1196.78 72.3387 1196.69 72.6587 1196.51 73H1192.83L1192.78 72.44C1193.27 72.2693 1193.75 72.1413 1194.22 72.056C1194.16 69.3467 1194.1 67.3413 1194.06 66.04C1193.47 66.008 1193 65.944 1192.65 65.848L1192.72 65.016C1193.28 64.856 1194.12 64.776 1195.23 64.776C1195.4 65.0427 1195.5 65.384 1195.55 65.8C1196.77 65.0533 1197.5 64.68 1197.74 64.68C1197.97 64.68 1198.25 64.728 1198.56 64.824C1198.86 64.9093 1199.09 65.0053 1199.24 65.112C1199.24 66.1787 1199.14 67.048 1198.94 67.72C1198.79 67.7627 1198.61 67.784 1198.41 67.784C1198.22 67.784 1198.09 67.7787 1198.01 67.768L1197.69 66.024ZM1202.85 63.352C1202.57 63.416 1202.3 63.448 1202.03 63.448C1201.77 63.448 1201.52 63.432 1201.26 63.4C1201.2 63.1013 1201.17 62.8027 1201.17 62.504C1201.17 62.1947 1201.18 61.9653 1201.2 61.816C1201.43 61.7627 1201.68 61.736 1201.93 61.736C1202.2 61.736 1202.48 61.7467 1202.78 61.768C1202.85 62.0453 1202.88 62.3173 1202.88 62.584C1202.88 62.84 1202.87 63.096 1202.85 63.352ZM1199.93 65.032C1200.84 64.872 1201.55 64.792 1202.05 64.792C1202.55 64.792 1202.87 64.8027 1203.01 64.824C1203.01 65.08 1202.97 65.3627 1202.91 65.672C1202.85 65.9813 1202.81 66.1307 1202.8 66.12L1202.65 71.912L1204 72.04C1204 72.3387 1203.91 72.6587 1203.73 73H1200.05L1200 72.44C1200.49 72.2693 1200.97 72.1413 1201.44 72.056C1201.37 69.3893 1201.32 67.3893 1201.28 66.056C1200.66 66.056 1200.19 65.992 1199.87 65.864L1199.93 65.032ZM1208.7 73.192C1207.42 73.192 1206.46 72.8347 1205.83 72.12C1205.2 71.3947 1204.89 70.3653 1204.89 69.032C1204.89 66.1307 1206.18 64.68 1208.76 64.68C1209.18 64.68 1209.61 64.744 1210.06 64.872C1210.5 64.9893 1210.86 65.1227 1211.11 65.272C1211.08 66.264 1210.98 66.968 1210.81 67.384C1210.62 67.4373 1210.46 67.464 1210.34 67.464H1210.07C1210.02 67.464 1209.96 67.4587 1209.88 67.448L1209.48 65.688C1209.13 65.656 1208.93 65.64 1208.87 65.64C1208.1 65.64 1207.49 65.8747 1207.03 66.344C1206.58 66.8133 1206.36 67.6027 1206.36 68.712C1206.36 69.8213 1206.53 70.664 1206.87 71.24C1207.22 71.816 1207.9 72.104 1208.89 72.104C1209.36 72.104 1210.09 71.88 1211.1 71.432C1211.3 71.7093 1211.41 71.9547 1211.42 72.168C1210.87 72.488 1210.34 72.7387 1209.82 72.92C1209.29 73.1013 1208.92 73.192 1208.7 73.192ZM1216.5 72.104C1216.97 72.104 1217.7 71.88 1218.71 71.432C1218.91 71.7093 1219.02 71.9547 1219.03 72.168C1218.48 72.488 1217.95 72.7387 1217.43 72.92C1216.9 73.1013 1216.53 73.192 1216.31 73.192C1215.07 73.192 1214.13 72.824 1213.48 72.088C1212.82 71.3413 1212.5 70.3013 1212.5 68.968C1212.5 67.6347 1212.81 66.5893 1213.44 65.832C1214.08 65.064 1215.04 64.68 1216.31 64.68C1217.29 64.68 1218.04 65.032 1218.55 65.736C1219.07 66.44 1219.33 67.384 1219.33 68.568C1219.25 68.7173 1219.18 68.8187 1219.12 68.872L1213.97 68.792C1213.98 69.8693 1214.17 70.6907 1214.53 71.256C1214.9 71.8213 1215.56 72.104 1216.5 72.104ZM1217.88 67.88C1217.88 67.176 1217.75 66.632 1217.49 66.248C1217.24 65.8533 1216.81 65.656 1216.21 65.656C1215.61 65.656 1215.08 65.768 1214.61 65.992C1214.29 66.632 1214.09 67.288 1214 67.96C1214.85 67.9493 1216.14 67.9227 1217.88 67.88Z" fill="#010201"/>
</svg>
